<?xml version="1.0" standalone="no"?><!DOCTYPE svg PUBLIC "-//W3C//DTD SVG 1.1//EN" "http://www.w3.org/Graphics/SVG/1.1/DTD/svg11.dtd"><svg t="1626916903394" class="icon" viewBox="0 0 1024 1024" version="1.1" xmlns="http://www.w3.org/2000/svg" p-id="2167" xmlns:xlink="http://www.w3.org/1999/xlink" width="200" height="200"><defs><style type="text/css"></style></defs><path d="M872.727273 190.138182H651.636364l60.974545-60.974546a34.676364 34.676364 0 0 0 0-49.338181 35.141818 35.141818 0 0 0-49.338182 0l-109.614545 110.312727h-100.770909l-110.312728-110.312727a35.141818 35.141818 0 0 0-49.338181 0 34.676364 34.676364 0 0 0 0 49.338181l60.974545 60.974546H151.272727a81.454545 81.454545 0 0 0-81.454545 81.454545v499.2a81.454545 81.454545 0 0 0 81.454545 81.454546h49.803637v67.025454a34.909091 34.909091 0 0 0 69.818181 0v-67.025454h488.727273v67.025454a34.909091 34.909091 0 0 0 69.818182 0v-67.025454h43.287273a81.454545 81.454545 0 0 0 81.454545-81.454546V271.592727a81.454545 81.454545 0 0 0-81.454545-81.454545z m11.636363 580.654545a11.869091 11.869091 0 0 1-11.636363 11.636364h-721.454546a11.869091 11.869091 0 0 1-11.636363-11.636364V271.592727a11.869091 11.869091 0 0 1 11.636363-11.636363h721.454546a11.869091 11.869091 0 0 1 11.636363 11.636363z" p-id="2168"></path><path d="M447.534545 368.64H232.727273a34.909091 34.909091 0 0 0 0 69.818182h72.610909v196.654545a34.909091 34.909091 0 0 0 69.818182 0v-196.654545h72.378181a34.909091 34.909091 0 0 0 0-69.818182zM805.701818 372.363636a35.141818 35.141818 0 0 0-46.545454 17.454546l-75.403637 167.330909-75.403636-167.330909a34.909091 34.909091 0 0 0-46.545455-17.454546 34.443636 34.443636 0 0 0-17.454545 46.545455l104.261818 232.727273a34.676364 34.676364 0 0 0 31.883636 20.48h5.585455a34.676364 34.676364 0 0 0 31.883636-20.48l104.494546-232.727273a34.909091 34.909091 0 0 0-16.756364-46.545455z" p-id="2169"></path></svg>